{"title":"The.Book.of.Eli.2010.CAM.Xvid-TA","uid":5288827,"size":731963896,"categoryP":"video","categoryS":"movies","magnet":"?xt=urn:btih:d480a8cfcb53fd7b7dde5de1e733a29251df6532&amp;dn=The.Book.of.Eli.2010.CAM.Xvid-TA&amp;tr=udp%3A%2F%2Ftracker.openbittorrent.com%3A80&amp;tr=udp%3A%2F%2Fopen.demonii.com%3A1337&amp;tr=udp%3A%2F%2Ftracker.coppersurfer.tk%3A6969&amp;tr=udp%3A%2F%2Fexodus.desync.com%3A6969","seeders":0,"leechers":1,"uploader":".BONE.","files":53,"time":1263826631,"description":" &lt;a href=&quot;http://www.imdb.com/title/tt1037705/&quot; rel=&quot;nofollow&quot; target=&quot;_NEW&quot;&gt;http://www.imdb.com/title/tt1037705/&lt;/a&gt;\n\nPlot\nA post-apocalyptic tale, in which a lone man fights his way across America in order to protect a sacred book that holds the secrets to saving humankind.\n\n\nSource : LU\nGeneral\nComplete name : The.Book.of.Eli.2010.CAM.Xvid.TA.avi\nFormat : AVI\nFormat/Info : Audio Video Interleave\nFile size : 699 MiB\nDuration : 1h 48mn\nOverall bit rate : 902 Kbps\nWriting application : Lavf50.6.0\nWriting library : VirtualDub build 32661/release\n\nVideo\nID : 0\nFormat : MPEG-4 Visual\nFormat profile : AdvancedSimple@L5\nFormat settings, BVOP : Yes\nFormat settings, QPel : No\nFormat settings, GMC : No warppoints\nFormat settings, Matrix : Custom\nMuxing mode : Packed bitstream\nCodec ID : XVID\nCodec ID/Hint : XviD\nDuration : 1h 48mn\nBit rate : 793 Kbps\nWidth : 640 pixels\nHeight : 262 pixels\nDisplay aspect ratio : 2.40:1\nFrame rate : 25.000 fps\nResolution : 24 bits\nColorimetry : 4:2:0\nScan type : Progressive\nBits/(Pixel*Frame) : 0.189\nStream size : 615 MiB (88%)\nWriting library : XviD 1.2.1 (UTC 2008-12-04)\n\nAudio\nID : 1\nFormat : MPEG Audio\nFormat version : Version 1\nFormat profile : Layer 3\nCodec ID : 55\nCodec ID/Hint : MP3\nDuration : 1h 48mn\nBit rate mode : Constant\nBit rate : 96.0 Kbps\nChannel(s) : 2 channels\nSampling rate : 44.1 KHz\nResolution : 16 bits\nStream size : 74.4 MiB (11%)\nAlignment : Aligned on interleaves\nInterleave, duration : 26 ms (0.65 video frame)\nInterleave, preload duration : 522 ms\n\n","torrent":{"xt":"urn:btih:d480a8cfcb53fd7b7dde5de1e733a29251df6532","amp;dn":"The.Book.of.Eli.2010.CAM.Xvid-TA","amp;tr":["udp%3A%2F%2Ftracker.openbittorrent.com%3A80","udp%3A%2F%2Fopen.demonii.com%3A1337","udp%3A%2F%2Ftracker.coppersurfer.tk%3A6969","udp%3A%2F%2Fexodus.desync.com%3A6969"],"infoHash":"d480a8cfcb53fd7b7dde5de1e733a29251df6532","infoHashBuffer":{"type":"Buffer","data":[212,128,168,207,203,83,253,123,125,222,93,225,231,51,162,146,81,223,101,50]},"announce":[],"urlList":[]}}